<svg xmlns="http://www.w3.org/2000/svg" viewBox="0 0 480 290" width="480pt" height="290pt" version="1.1" xmlns:xlink="http://www.w3.org/1999/xlink">
  <g id="surface2" transform="matrix(1 0 0 1 0 20)" data-tpl_matrix="1,0,0,1,0,20">
    <path style="stroke:none;fill-rule:evenodd;fill:rgb(37.254902%,37.254902%,37.254902%);fill-opacity:1" d="M 287.051 84.8516 L 287.051 82.6016 L 284.5 80.1484 L 284.699 77.3516 L 284.5 77.1992 L 284.352 77 L 284.199 76.8008 L 284.051 76.5508 L 283.949 76.3516 L 283.852 76.0508 L 283.801 75.8984 L 283.801 75.3984 L 284.148 75.8008 L 284.5 76.1016 L 284.898 76.3984 L 285.301 76.6484 L 285.648 76.8516 L 286.051 77.1016 L 286.449 77.3008 L 286.801 77.5 L 286.699 79.3516 L 287.949 80.3516 L 287.898 80.8008 L 287.852 81.3008 L 287.75 81.8516 L 287.648 82.3984 L 287.352 83.6016 L 287.199 84.1992 L 287.051 84.8516 M 254.449 101.801 L 254.25 101.801 L 253.949 101.75 L 253.648 101.648 L 253.301 101.551 L 253 101.449 L 252.699 101.352 L 252.398 101.301 L 252.199 101.301 L 252.199 101.148 L 252.25 101 L 252.25 100.852 L 252.301 100.75 L 252.398 100.551 L 252.551 100.352 L 252.699 100.148 L 252.852 100 L 253.051 99.8516 L 253.199 99.75 L 252.352 98.8516 L 252.398 98.0508 L 253.352 97.3008 L 255.199 97.3984 L 255.602 97.0508 L 256.102 96.6484 L 256.699 96.1016 L 257.352 95.6484 L 257.699 95.3984 L 258.051 95.1992 L 258.398 95 L 258.75 94.8008 L 259.051 94.6484 L 259.352 94.6016 L 259.648 94.5 L 259.949 94.5 L 259.699 94.6484 L 259.5 94.75 L 259.25 94.8984 L 258.949 95.0508 L 258.699 95.1992 L 258.449 95.3008 L 258.199 95.4492 L 258 95.6016 L 258.852 96.4492 L 258.699 96.75 L 258.551 97.0508 L 258.449 97.3008 L 258.398 97.6016 L 258.352 97.9492 L 258.301 98.25 L 258.301 98.5 L 258.25 98.8008 L 257.898 99.1016 L 257.551 99.3516 L 257.25 99.6484 L 256.949 99.8984 L 256.449 100.449 L 256 100.898 L 255.75 101.102 L 255.551 101.301 L 255.352 101.449 L 255.148 101.602 L 255 101.699 L 254.602 101.801 L 254.449 101.801 M 196.602 87.6484 L 196.75 87.4492 L 197.25 87.0508 L 197.551 86.8516 L 198.301 86.3984 L 199.102 85.9492 L 199.852 85.5 L 200.602 85.1016 L 201.148 84.8008 L 201.5 84.5508 L 201.301 84.3984 L 201.148 84.1484 L 200.949 83.8984 L 200.801 83.6484 L 200.398 83.1484 L 200.051 82.6016 L 199.699 82.0508 L 199.352 81.5508 L 199.148 81.3008 L 198.949 81.1016 L 198.75 80.8516 L 198.602 80.6484 L 198.699 78.8008 L 198.5 78.8008 L 198.25 78.75 L 198 78.6484 L 197.75 78.5508 L 197.5 78.4492 L 197.352 78.3516 L 197.199 78.3008 L 196.648 77.75 L 196.449 77.3984 L 196.25 76.9492 L 195.648 76.0508 L 195.301 75.6016 L 195 75.1992 L 194.602 74.75 L 194.25 74.3516 L 194.199 75.1484 L 194.199 76 L 194.25 76.8984 L 194.301 77.8008 L 194.398 78.75 L 194.551 79.6992 L 194.648 80.6484 L 194.801 81.5508 L 195 82.5 L 195.199 83.3984 L 195.398 84.25 L 195.648 85.0508 L 195.898 85.8008 L 196.102 86.5 L 196.352 87.1016 L 196.602 87.6484 M 260.602 61.0508 L 258.148 60.8984 L 258.199 60.6992 L 258.199 60.4492 L 258.25 60.1992 L 258.25 60 L 258.301 59.75 L 258.449 59.5 L 258.5 59.3008 L 258.648 59.1016 L 257.301 57.6992 L 255.898 57.6016 L 255.75 57.5 L 255.648 57.3516 L 255.551 57.25 L 255.449 57.1016 L 255.352 56.8984 L 255.301 56.75 L 255.301 56.5508 L 255.25 56.3516 L 255.602 56.1016 L 255.801 56.1016 L 256 56.1484 L 256.25 56.1992 L 256.5 56.3008 L 256.75 56.3516 L 257 56.3984 L 257.398 56.5 L 257.398 56.1992 L 257.449 55.8984 L 257.551 55.6016 L 257.602 55.3008 L 257.699 54.9492 L 257.801 54.6992 L 257.852 54.4492 L 257.852 54.3516 L 257.898 54.4492 L 258 54.6016 L 258.051 54.75 L 258.199 54.8984 L 258.301 55.0508 L 258.398 55.1992 L 258.5 55.25 L 258.5 55.3008 L 258.75 55.3516 L 259 55.3516 L 259.199 55.4492 L 259.352 55.5508 L 259.5 55.6484 L 259.648 55.75 L 259.75 55.8984 L 259.898 56 L 259.75 56.1016 L 259.5 56.3516 L 259.398 56.5 L 259.25 56.6484 L 259.199 56.8008 L 259.148 57 L 259.102 57.1992 L 259.352 57.1992 L 259.5 57.3008 L 259.602 57.3008 L 259.648 57.3516 L 259.699 57.3984 L 259.75 57.4492 L 259.801 57.6016 L 259.898 57.75 L 260 57.9492 L 260.102 58.1992 L 260.051 58.3516 L 260 58.5 L 260.051 58.6484 L 260.102 58.8008 L 260.148 58.9492 L 260.25 59.0508 L 260.352 59.1992 L 260.449 59.3008 L 260.75 59.5 L 261 59.6992 L 261.352 60.0508 L 261.398 60.1484 L 260.602 61.0508 M 240.852 58.5508 L 241.602 58.9492 L 241.449 61.6992 L 241.602 61.75 L 241.75 61.8008 L 241.949 61.8516 L 242.102 61.8984 L 242.449 62.0508 L 242.801 62.25 L 243.102 62.4492 L 243.398 62.6484 L 243.551 62.6992 L 243.648 62.75 L 243.75 62.8008 L 243.852 62.8008 L 244 62.75 L 244.148 62.6484 L 244.352 62.6016 L 244.551 62.6016 L 244.898 62.5 L 245.301 62.5 L 245.699 62.4492 L 246.051 62.4492 L 246.398 62.5 L 246.75 62.5 L 247.5 63.5 L 247.352 63.6484 L 247.102 63.8008 L 246.898 64 L 246.648 64.1016 L 246.398 64.3008 L 246.148 64.4492 L 245.949 64.6016 L 245.75 64.8008 L 245.5 64.6484 L 245.301 64.5 L 245.199 64.4492 L 245.102 64.3984 L 244.75 64.3984 L 244.602 64.4492 L 244.102 64.6992 L 243.301 64.6484 L 243.051 64.5508 L 242.852 64.4492 L 242.602 64.3984 L 242.352 64.3008 L 241.852 64.1484 L 241.301 64.0508 L 240.75 63.8984 L 240.25 63.8008 L 240 63.6992 L 239.75 63.6484 L 239.551 63.5508 L 239.301 63.4492 L 238.5 63.3984 L 238.102 63.5 L 237.852 63.5508 L 237.199 63.5508 L 236.852 63.5 L 236.5 63.5 L 236.148 63.4492 L 235.398 63.3516 L 234.699 63.25 L 234.051 63.1484 L 233.551 63.1016 L 233.102 63.5508 L 232.949 63.5 L 232.75 63.4492 L 232.551 63.3516 L 232.301 63.1992 L 231.852 62.8516 L 231.301 62.4492 L 230.801 62 L 230.352 61.6016 L 229.898 61.25 L 229.5 61 L 229.551 60.8516 L 229.602 60.6484 L 229.699 60.5 L 229.801 60.3516 L 229.898 60.1484 L 230 59.8516 L 230.051 59.6484 L 229.898 59.6016 L 229.699 59.5508 L 229.449 59.4492 L 229.199 59.3516 L 228.898 59.25 L 228.602 59.1484 L 228.301 59.0508 L 228 59.0508 L 227.852 58.8516 L 227.699 58.6992 L 227.551 58.5 L 227.398 58.3516 L 227.199 58.25 L 226.949 58.1484 L 226.852 58.1016 L 226.699 58.0508 L 226.551 58 L 226.398 58 L 226.449 57.1016 L 226.102 57.3008 L 225.551 57.5 L 224.949 57.75 L 224.301 58.0508 L 223.949 58.1484 L 223.602 58.3008 L 223.301 58.3984 L 222.949 58.5 L 222.648 58.6016 L 222.352 58.6484 L 221.852 58.6484 L 221.602 58.6992 L 221 58.8008 L 220.699 58.8984 L 220.102 59.1016 L 219.449 59.3008 L 218.102 59.8516 L 216.801 60.3984 L 216.102 60.6992 L 215.449 60.9492 L 214.801 61.1992 L 214.102 61.4492 L 213.801 61.5 L 213.5 61.6016 L 213.199 61.6484 L 212.898 61.6992 L 212.602 61.75 L 212.301 61.75 L 212 61.8008 L 211.75 61.8008 L 211.449 62.0508 L 211.199 62.3516 L 210.949 62.6484 L 210.699 62.9492 L 210.5 63.1992 L 210.102 63.8008 L 209.898 64.1016 L 209.75 64.3516 L 209.602 64.6484 L 209.449 64.9492 L 209.352 65.25 L 209.102 65.8516 L 208.898 66.4492 L 208.75 67.1016 L 208.602 67.75 L 208.5 68.3984 L 208.398 69.1016 L 208.301 70.6016 L 208.199 72.3008 L 208.449 72.6484 L 208.699 73.0508 L 209.199 73.9492 L 209.648 74.9492 L 210.102 75.8984 L 210.551 76.9492 L 211.051 78 L 211.301 78.5 L 211.602 79 L 211.898 79.5 L 212.25 79.9492 L 212.551 79.8984 L 212.898 79.8516 L 213.352 79.8008 L 213.852 79.75 L 215 79.8008 L 216.25 79.8008 L 217.5 79.8516 L 218.699 79.8984 L 219.75 79.8984 L 220.551 79.9492 L 220.398 81.8516 L 220.852 81.8984 L 221.25 81.9492 L 221.648 82.0508 L 222.051 82.1016 L 222.199 82.1484 L 223.25 82.1484 L 223.449 82.1016 L 223.699 82.0508 L 223.75 82.25 L 223.801 82.3984 L 223.801 83.25 L 223.75 83.75 L 223.648 84.25 L 223.602 84.75 L 223.5 85.25 L 223.449 85.75 L 223.801 86.1484 L 224.199 86.6016 L 224.551 86.9492 L 224.898 87.3516 L 225.199 87.6992 L 225.551 88 L 225.852 88.3516 L 226.102 88.75 L 226.352 89.1016 L 226.602 89.5 L 226.699 89.6992 L 226.801 89.9492 L 226.898 90.1992 L 227.051 90.9492 L 227.102 91.25 L 227.148 91.5508 L 227.148 92.9492 L 226.25 93.8008 L 226.199 94.3008 L 226.25 94.8008 L 226.352 95.6992 L 226.449 96.1484 L 226.551 96.6016 L 226.75 97.0508 L 226.898 97.4492 L 227.102 97.8984 L 227.301 98.3516 L 227.5 98.75 L 227.75 99.1484 L 228 99.5508 L 228.301 99.9492 L 228.551 100.352 L 228.852 100.75 L 229.449 101.5 L 230.102 102.25 L 230.75 103 L 231.398 103.699 L 232 104.398 L 232.648 105.051 L 233.199 105.75 L 233.75 106.352 L 234.199 106.398 L 234.648 106.398 L 235.148 106.352 L 235.602 106.352 L 236.5 106.25 L 237.449 106.148 L 238.352 106 L 239.301 105.949 L 239.75 105.898 L 240.25 105.852 L 240.699 105.898 L 241.148 105.898 L 241.352 105.551 L 241.949 104.648 L 242.199 104.398 L 242.449 104.102 L 242.699 103.898 L 243 103.648 L 243.5 103.25 L 243.801 103.051 L 244.051 102.898 L 244.301 102.75 L 244.602 102.602 L 244.801 102.5 L 245.102 102.398 L 245.25 99.6484 L 245.699 99.6484 L 245.949 99.6016 L 246.148 99.5508 L 246.398 99.5 L 246.602 99.3984 L 246.852 99.3008 L 247.051 99.1992 L 247.25 99.1016 L 247.449 98.9492 L 247.648 98.8008 L 247.898 98.6484 L 248.301 98.3008 L 248.648 97.8984 L 249.051 97.5 L 249.352 97.1016 L 249.699 96.6484 L 250.301 95.75 L 250.551 95.3008 L 250.75 94.8516 L 250.949 94.3984 L 250.801 94.1992 L 250.602 94 L 250.398 93.8516 L 250.148 93.6484 L 249.949 93.4492 L 249.75 93.3008 L 249.551 93.1016 L 249.398 92.8984 L 249.398 92.5508 L 249.5 92.1484 L 249.551 91.75 L 249.699 91.3008 L 249.801 90.8516 L 249.898 90.4492 L 249.949 90.0508 L 250 89.6992 L 250.102 89.5 L 250.199 89.3008 L 250.352 89.1016 L 250.551 88.8516 L 250.801 88.6484 L 251.051 88.3516 L 251.398 88.1016 L 251.699 87.8516 L 253.199 86.6484 L 254.051 86.1016 L 254.898 85.5 L 256.551 84.3984 L 257.949 83.3984 L 258.449 83 L 258.852 82.6992 L 259.102 82.4492 L 259.102 82.3008 L 259.148 81.6992 L 259.199 81.3008 L 259.25 81.1016 L 259.25 81 L 259.301 80.8516 L 259.352 80.75 L 259.5 80.5508 L 259.75 80.3008 L 260.102 80 L 260.551 79.6016 L 257.648 79.4492 L 257.5 79.6016 L 257.301 79.6992 L 257.051 79.8008 L 256.852 79.8516 L 256.648 79.8984 L 255.898 79.8984 L 255.352 79.8516 L 254.801 79.75 L 254.352 79.6992 L 253.852 79.6484 L 253.648 79.3516 L 253.148 78.75 L 252.898 78.3984 L 252.648 78.0508 L 252.352 77.6992 L 251.75 76.8008 L 251.602 76.6016 L 251.5 76.3516 L 251.449 76.1484 L 251.398 75.9492 L 251.352 75.6992 L 251.25 75.5 L 251.199 75.25 L 251.051 75.0508 L 251 74.9492 L 250.898 74.8516 L 250.75 74.75 L 250.648 74.6484 L 250.352 74.4492 L 250 74.25 L 249.398 73.8516 L 249.25 73.75 L 249.148 73.6016 L 249 73.5 L 248.898 73.3516 L 248.852 73.1992 L 248.75 73.0508 L 248.699 72.8984 L 248.648 72.75 L 248.648 71.1992 L 248.602 70.8984 L 248.398 70.3984 L 248.102 69.8984 L 247.898 69.6484 L 247.699 69.3984 L 247.551 69.1484 L 247.398 68.8516 L 247.25 68.6016 L 247.102 68.3008 L 246.898 68 L 246.75 67.75 L 246.301 67.1992 L 245.898 66.6484 L 245.602 66.1484 L 245.449 65.8984 L 245.301 65.6484 L 245.199 65.3516 L 245.102 65.1016 L 245.102 64.8984 L 245.051 64.6484 L 245.301 64.6484 L 245.398 64.6992 L 245.5 64.8008 L 245.75 64.8984 L 246 65.1016 L 246.199 65.3008 L 246.398 65.5508 L 246.602 65.75 L 246.852 66 L 247 66.25 L 247.25 66.4492 L 247.699 66.8984 L 247.801 66.9492 L 247.898 67 L 247.949 67 L 248.051 67.0508 L 248.148 67.0508 L 248.199 67 L 248.301 67 L 250.148 69.8008 L 250.398 72.75 L 253.25 75.3516 L 254.398 78.3008 L 254.75 78.3516 L 255.148 78.3008 L 255.551 78.25 L 255.898 78.1992 L 256.25 78.1016 L 256.602 77.9492 L 257 77.8516 L 257.352 77.6992 L 257.699 77.5 L 258.051 77.3516 L 258.352 77.1484 L 258.699 76.9492 L 259.398 76.5508 L 260.051 76.1016 L 260.699 75.6484 L 261.398 75.25 L 261.699 75.0508 L 262.051 74.8516 L 262.398 74.6992 L 262.699 74.5 L 263.051 74.3516 L 263.352 74.25 L 263.699 74.1016 L 264.051 74 L 264.398 73.9492 L 264.699 73.8984 L 265.051 73.8516 L 265.398 73.8516 L 266.301 72.0508 L 266.301 71.6992 L 266.25 71.5508 L 266.148 71.3516 L 266.102 71.1992 L 266.051 71 L 266.051 70.8516 L 266 70.6484 L 264.398 70.5508 L 263.602 69.6016 L 262.648 69.5508 L 261.648 69.5 L 260.648 69.3984 L 260.102 69.3008 L 259.648 69.25 L 259.352 69.1484 L 259.148 69.1016 L 258.648 68.8984 L 258.398 68.8008 L 258.199 68.6992 L 257.949 68.6016 L 257.75 68.4492 L 257.551 68.3008 L 257.352 68.1016 L 257.148 67.9492 L 257 67.75 L 256.801 67.5508 L 256.648 67.3008 L 256.352 66.8008 L 256.148 66.75 L 255.75 66.6484 L 255.602 66.5 L 255.449 66.3984 L 255.301 66.25 L 255.199 66.1016 L 255.051 65.9492 L 254.898 65.5508 L 254.75 65.1484 L 254.602 64.75 L 254.449 64.3516 L 254.648 64.3008 L 254.801 64.25 L 254.949 64.1992 L 255.102 64.25 L 255.398 64.25 L 255.602 64.3008 L 255.75 64.3516 L 255.898 64.4492 L 256.051 64.5508 L 256.25 64.6484 L 256.398 64.75 L 257 65.25 L 257.352 65.6016 L 257.602 65.9492 L 257.898 66.25 L 258.199 66.6016 L 258.699 67.3008 L 259.199 67.8984 L 259.801 68 L 260.148 68.1016 L 260.551 68.1992 L 261.25 68.4492 L 262 68.6484 L 262.398 68.75 L 262.801 68.8516 L 263.148 68.8984 L 263.551 68.9492 L 264.051 68.9492 L 264.25 68.8984 L 264.449 68.8984 L 264.602 68.8516 L 264.75 68.8008 L 264.949 68.6992 L 265.648 69.6992 L 265.75 69.6992 L 265.852 69.6484 L 265.949 69.6484 L 266.102 69.5508 L 266.398 69.3984 L 266.75 69.25 L 267.051 69.0508 L 267.352 68.8008 L 267.602 68.6016 L 267.801 68.4492 L 269.449 68.5508 L 269.602 68.75 L 269.898 69.0508 L 270.148 69.3984 L 270.602 69.8516 L 270.801 70 L 270.949 70.1484 L 271.148 70.25 L 271.301 70.3984 L 271.449 70.4492 L 271.648 70.5508 L 271.801 70.5508 L 271.801 70.8984 L 271.852 71.1016 L 271.898 71.25 L 272 71.6016 L 272.148 71.8984 L 272.352 72.1992 L 272.551 72.4492 L 272.75 72.75 L 272.898 72.9492 L 272.949 72.3984 L 272.949 71.75 L 273 71.0508 L 273 69 L 272.949 68.6484 L 272.898 68.3516 L 272.852 68.0508 L 272.801 67.8008 L 272.949 68 L 273.102 68.25 L 273.25 68.5 L 273.398 68.8516 L 273.551 69.1484 L 273.699 69.5 L 273.801 69.8516 L 273.949 70.1992 L 274.051 70.5508 L 274.148 70.8984 L 274.199 71.25 L 274.25 71.5508 L 274.25 72.25 L 274.199 72.3516 L 274.199 72.4492 L 274.148 72.5508 L 274.25 72.6992 L 274.398 72.8516 L 274.602 73 L 274.75 73.1992 L 274.949 73.3984 L 275.051 73.4492 L 275.148 73.5 L 275.25 73.5508 L 275.301 73.5508 L 275.301 74.4492 L 275.352 74.8008 L 275.352 75.1484 L 275.398 75.5 L 275.5 75.8516 L 275.551 76.1484 L 275.648 76.5 L 275.801 76.8008 L 275.949 77.0508 L 276.148 77.3008 L 276.25 77.3984 L 276.352 77.5 L 276.449 77.6016 L 276.602 77.6484 L 276.699 77.6992 L 276.852 77.75 L 277 77.8008 L 277.102 77.8008 L 277.148 78 L 277.148 78.3516 L 277.199 78.5 L 277.301 78.6992 L 277.352 78.8516 L 277.449 79 L 277.551 79.1484 L 277.648 79.25 L 277.801 79.3984 L 277.949 79.5 L 278.051 79.6016 L 278.199 79.6484 L 278.352 79.6992 L 278.648 79.8008 L 278.699 79.4492 L 278.75 79.1484 L 278.852 78.8984 L 279 78.6992 L 279.102 78.5 L 279.301 78.3008 L 279.449 78.1484 L 279.602 77.9492 L 279.449 78.1016 L 279.352 78.1484 L 279.301 78.1484 L 279.301 78.1016 L 279.352 77.9492 L 279.5 77.6484 L 279.699 77.3008 L 279.898 76.9492 L 280.051 76.6992 L 280.102 76.6484 L 279.301 75.6484 L 279.551 71.9492 L 279.75 71.75 L 280 71.5508 L 280.301 71.3516 L 280.648 71.0508 L 280.949 70.8516 L 281.301 70.6016 L 281.551 70.3984 L 281.75 70.1992 L 281.602 69.8984 L 281.551 69.6484 L 281.5 69.4492 L 281.5 69.1016 L 281.602 68.8984 L 281.699 68.6484 L 281.852 68.3516 L 282 68.3516 L 282.199 68.4492 L 282.449 68.5 L 282.699 68.6016 L 282.949 68.75 L 283.25 68.8008 L 283.551 68.8984 L 283.852 68.9492 L 283.852 69.1992 L 283.898 69.4492 L 284 69.9492 L 284.102 70.1992 L 284.199 70.4492 L 284.352 70.6992 L 284.5 70.8984 L 284.648 71.1016 L 284.852 71.3008 L 285.051 71.4492 L 285.25 71.6016 L 285.5 71.6992 L 285.699 71.8008 L 285.949 71.8516 L 286.199 71.8984 L 286.148 71.5508 L 286.148 70.75 L 286.199 70.6484 L 286.199 70.5508 L 286.301 70.4492 L 286.352 70.3516 L 286.5 70.1992 L 286.602 70.0508 L 286.75 69.8984 L 287.75 69.8516 L 287.648 69.1484 L 287.5 68.3984 L 287.301 67.6484 L 287.148 66.8516 L 286.898 66.0508 L 286.699 65.25 L 286.199 63.6484 L 285.898 62.8516 L 285.648 62.0508 L 285.301 61.3008 L 285 60.5508 L 284.648 59.8008 L 284.301 59.1484 L 283.949 58.4492 L 283.602 57.8516 L 282.898 56.6992 L 282.199 55.6016 L 281.449 54.4492 L 280.602 53.3516 L 279.801 52.25 L 278.949 51.25 L 278.102 50.1992 L 277.25 49.1484 L 276.352 48.1992 L 275.449 47.25 L 274.551 46.3516 L 273.602 45.5 L 273.148 45.0508 L 272.648 44.6992 L 272.199 44.3008 L 271.75 43.9492 L 271.301 43.5508 L 270.801 43.1992 L 270.352 42.8984 L 269.852 42.5508 L 269.25 42.1484 L 268.648 41.75 L 267.949 41.3516 L 267.301 40.9492 L 266.602 40.5 L 265.949 40.1484 L 265.199 39.75 L 264.5 39.3516 L 263.75 38.9492 L 263.051 38.6016 L 262.352 38.3008 L 261.648 37.9492 L 260.949 37.6484 L 260.301 37.3516 L 259.648 37.1016 L 259 36.8516 L 257.852 36.6484 L 257.699 36.8008 L 257.551 36.8984 L 257.449 36.9492 L 257.25 36.9492 L 257.199 36.8984 L 257.148 36.8516 L 257.148 36.75 L 257.199 36.75 L 257.199 36.6992 L 257.301 36.8008 L 257.352 36.8984 L 257.398 37.0508 L 257.25 37.0508 L 257.102 37.1016 L 256.949 37.1992 L 256.801 37.25 L 256.602 37.3516 L 256.449 37.3984 L 256.301 37.4492 L 256.148 37.4492 L 256.25 37.75 L 256.301 37.9492 L 256.301 38.3984 L 256.352 38.5508 L 256.449 38.8516 L 254.852 38.75 L 254.801 38.9492 L 254.852 39.1016 L 254.852 39.3008 L 254.898 39.4492 L 255.051 39.8008 L 255.199 40.1484 L 255.352 40.4492 L 255.551 40.75 L 255.75 40.9492 L 255.898 41.1992 L 255.602 41.3008 L 255.398 41.3516 L 254.852 41.3516 L 254.648 41.3008 L 254.398 41.25 L 254 41.1992 L 253.5 41.1016 L 252.602 41 L 252.449 40.6016 L 252.352 40.1992 L 252.199 39.8008 L 252 39.4492 L 251.898 39.25 L 251.75 39.1016 L 251.648 38.8984 L 251.5 38.8008 L 251.301 38.6992 L 251.148 38.6016 L 250.949 38.5508 L 250.699 38.5 L 250.648 38.6992 L 250.602 38.8984 L 250.551 39.0508 L 250.449 39.25 L 250.352 39.3984 L 250.301 39.5508 L 250.199 39.6992 L 250.199 39.8984 L 250.352 40.1016 L 250.551 40.3984 L 250.949 41.1016 L 251.148 41.4492 L 251.398 41.8008 L 251.551 42.1016 L 251.699 42.3008 L 251.398 42.3516 L 251.102 42.3516 L 250.801 42.4492 L 250.449 42.5 L 249.801 42.75 L 249.148 42.9492 L 248.801 43.1016 L 248.449 43.1484 L 248.148 43.1992 L 247.75 43.25 L 247.25 43.25 L 246.852 43.1484 L 246.699 43.1016 L 246.301 42.8984 L 246.398 42.75 L 246.398 42.3008 L 246.352 42.1484 L 246.25 42 L 246 41.75 L 245.852 41.6484 L 245.699 41.5508 L 245.5 41.4492 L 245.301 41.3516 L 244.852 41.1484 L 244.398 40.9492 L 243.898 40.8008 L 243.398 40.6484 L 242.898 40.5508 L 242.398 40.4492 L 241.648 40.3516 L 241.148 40.3008 L 240.25 41.1484 L 240.148 41.1484 L 240.051 41.1016 L 239.852 41.1016 L 239.648 41.1484 L 239.5 41.1992 L 239.301 41.25 L 239.148 41.3516 L 238.699 41.5508 L 237.801 42.0508 L 237.301 42.3516 L 236.852 42.6484 L 236.352 42.9492 L 235.898 43.25 L 235.102 43.8516 L 234.75 44.1016 L 234.5 44.3516 L 234.25 44.5508 L 235.449 46 L 236.051 45.6992 L 236.602 45.4492 L 237.102 45.3008 L 237.5 45.1484 L 238.148 44.8984 L 238.699 44.75 L 238.898 44.6992 L 239.102 44.6016 L 239.5 44.3984 L 239.75 44.1992 L 240 44.0508 L 240.551 43.5 L 242.352 43.5 L 242.5 43.5508 L 242.551 43.6016 L 242.602 43.6484 L 242.602 43.6992 L 242.648 43.75 L 242.648 43.8008 L 242.602 43.9492 L 242.551 44.1016 L 242.699 43.9492 L 242.699 43.8984 L 242.648 44 L 242.398 44.3008 L 242 44.6992 L 241.602 45.1992 L 241.199 45.6484 L 241 45.8516 L 240.898 46.0508 L 240.801 46.1992 L 240.75 46.3516 L 240.801 46.5 L 240.801 46.6484 L 240.852 46.8516 L 240.949 47 L 241.051 47.3984 L 241.102 47.5508 L 241.102 47.75 L 240.75 47.8984 L 240.398 48.0508 L 240.051 48.1992 L 239.648 48.3516 L 239.301 48.5 L 239 48.6484 L 238.75 48.8008 L 238.551 48.9492 L 238.398 48.9492 L 238.25 48.8516 L 238.102 48.8008 L 237.949 48.6992 L 237.801 48.6016 L 237.648 48.5 L 237.5 48.4492 L 237.352 48.4492 L 237.398 48.3516 L 237.398 48.25 L 237.449 48.1484 L 237.5 48 L 237.648 47.8008 L 237.852 47.5508 L 238.148 47.0508 L 238.148 46.9492 L 238.25 46.8008 L 238.25 46.6992 L 238.301 46.6016 L 238.148 46.4492 L 238.102 46.3516 L 238.051 46.25 L 238.051 46.0508 L 238.102 45.9492 L 238.102 45.8008 L 237.852 45.8008 L 237.699 45.8516 L 237.602 45.8984 L 237.5 46 L 237.398 46.0508 L 237.102 46.0508 L 236.102 46.1016 L 236 46.4492 L 236 46.8516 L 236.051 47 L 236.102 47.1016 L 236.148 47.1992 L 236.199 47.3008 L 236.148 47.4492 L 235.949 47.6016 L 235.699 47.8516 L 235.398 48.0508 L 235.102 48.25 L 234.75 48.3984 L 234.449 48.5508 L 234.352 48.6016 L 234.199 48.6484 L 234.102 48.6484 L 234 48.6992 L 234.102 48.6016 L 234.148 48.5508 L 234.148 48.5 L 234.199 48.4492 L 234.148 48.3984 L 234.148 48.3516 L 234.102 48.3516 L 234.051 48.3008 L 233.898 48.25 L 233.699 48.3008 L 233.25 48.3008 L 232.648 48.3516 L 232.102 48.4492 L 231.551 48.5 L 231.148 48.5 L 229.852 49.8516 L 229.199 49.8008 L 228.551 49.6992 L 227.898 49.6016 L 227.199 49.5508 L 226.898 49.5 L 226.602 49.4492 L 226.301 49.4492 L 225.949 49.3984 L 225.699 49.4492 L 225.398 49.4492 L 224.898 49.5508 L 224.898 49.6484 L 224.949 49.6992 L 225 49.8008 L 225 49.8984 L 225.148 50.0508 L 225.352 50.1992 L 225.5 50.3516 L 225.699 50.4492 L 225.898 50.5 L 226.051 50.5508 L 226 50.8516 L 225.949 51.1484 L 225.852 51.3984 L 225.75 51.6484 L 225.602 51.8516 L 225.449 52.0508 L 225.148 52.3516 L 224.852 52.3516 L 224.648 52.25 L 224.5 52.1992 L 224.301 52.1484 L 224.25 52.1484 L 224.148 52.1016 L 223.898 52.1016 L 223.75 52.1484 L 223.648 52.1992 L 223.5 52.25 L 222 50.3008 L 221.801 50.3008 L 221.648 50.3516 L 221.5 50.3984 L 221.352 50.5 L 221.199 50.5508 L 221 50.6484 L 220.852 50.6992 L 220.699 50.6992 L 220.648 51.0508 L 220.602 51.4492 L 220.5 51.8984 L 220.398 52.3008 L 220.301 52.75 L 220.199 53.1484 L 220.102 53.5508 L 220.051 53.9492 L 218.75 55.25 L 218.648 57.0508 L 218.801 57.1016 L 218.949 57.1484 L 219.102 57.25 L 219.25 57.3516 L 219.398 57.4492 L 219.551 57.5 L 219.699 57.6016 L 219.852 57.6016 L 220.102 57.5508 L 220.852 57.5508 L 221.102 57.6016 L 221.398 57.6484 L 221.648 57.75 L 221.898 57.8008 L 222.449 58 L 222.949 58.1484 L 223.199 58.1992 L 223.449 58.3008 L 223.699 58.3008 L 223.949 58.3516 L 223.949 58.25 L 224 58.1484 L 224.102 57.8516 L 224.25 57.5508 L 224.449 57.1992 L 224.699 56.8984 L 224.898 56.5508 L 225.148 56.3008 L 225.301 56.1016 L 225.602 56.1484 L 225.852 56.1992 L 226.102 56.3008 L 226.301 56.3984 L 226.801 56.6016 L 227.051 56.6484 L 227.352 56.6484 L 227.699 56.3516 L 228.051 56 L 228.5 55.6016 L 228.949 55.3008 L 229.148 55.1016 L 229.398 55 L 229.602 54.8516 L 230.102 54.6484 L 230.301 54.6016 L 230.551 54.5508 L 230.801 54.6016 L 232.699 57 L 232.551 57.1484 L 232.449 57.3516 L 232.352 57.5 L 232.25 57.6484 L 232.25 57.8516 L 232.199 58 L 232.199 58.3516 L 232 58.3516 L 231.801 58.3984 L 231.602 58.4492 L 231.398 58.5508 L 231.352 58.6016 L 231.301 58.6992 L 231.25 58.8008 L 231.25 59.0508 L 231.301 59.25 L 231.352 59.3516 L 231.398 59.4492 L 231.5 59.5508 L 231.602 59.6992 L 231.949 59.9492 L 232.352 60.25 L 232.75 60.5508 L 233.102 60.8008 L 233.398 61.0508 L 233.648 61.25 L 233.852 61.0508 L 234.148 60.75 L 234.449 60.5 L 234.801 60.1484 L 235.199 59.8516 L 235.551 59.5 L 235.75 59.3984 L 235.949 59.25 L 236.102 59.1484 L 236.25 59.1016 L 236.352 57.1992 L 237.148 58.1992 L 237.051 60.1016 L 237.199 60.1016 L 237.352 60.1484 L 237.648 60.25 L 237.898 60.5 L 238.051 60.6016 L 238.148 60.6992 L 238.25 60.8516 L 238.352 61 L 238.398 61.1484 L 238.5 61.3516 L 238.551 61.5 L 238.551 61.6992 L 238.602 61.8516 L 238.602 62 L 238.602 61.8008 L 238.699 61.6016 L 238.801 61.3008 L 238.949 61.0508 L 239.301 60.3984 L 239.699 59.6992 L 240.102 59.1016 L 240.551 58.5 L 240.852 58.1016 L 241.051 57.8008 L 241.199 57.8008 L 241.301 57.8516 L 241.352 57.8984 L 241.449 58 L 241.602 58.1016 L 241.898 58.3984 L 242 58.3984 L 242.102 58.4492 L 242.148 58.4492 L 242.648 58.1016 L 242.801 58.1484 L 242.949 58.1992 L 243.102 58.25 L 243.25 58.3516 L 243.398 58.3984 L 243.602 58.5 L 243.75 58.5508 L 243.898 58.5508 L 243.949 58.25 L 244 58 L 244.102 57.75 L 244.148 57.4492 L 244.25 57.25 L 244.352 57 L 244.398 56.8008 L 244.449 56.6484 L 244.648 56.6484 L 245.148 56.75 L 245.352 56.8008 L 245.75 56.9492 L 246.148 57.1016 L 246.551 57.3008 L 246.949 57.4492 L 247.199 57.5 L 247.398 57.5508 L 247.648 57.6016 L 247.898 57.6016 L 247.898 57.4492 L 248 57.3008 L 248.051 57.0508 L 248.148 56.8008 L 248.25 56.6016 L 248.352 56.3008 L 248.449 56 L 248.5 55.6992 L 249.352 55 L 249.301 55.1484 L 249.25 55.3008 L 249.199 55.4492 L 249.199 55.6016 L 249.25 55.75 L 249.25 55.8984 L 249.352 56.0508 L 249.398 56.1992 L 249.5 56.3984 L 249.648 56.5508 L 249.75 56.6992 L 249.898 56.8516 L 250.199 57.1992 L 250.551 57.5 L 250.898 57.8008 L 251.25 58.1016 L 251.648 58.3984 L 252 58.6484 L 252.602 59.1484 L 253.051 59.5 L 252.898 59.5508 L 252.699 59.6016 L 252.5 59.6484 L 252.301 59.6992 L 251.898 59.75 L 251.5 59.75 L 251.102 59.8008 L 250.699 59.75 L 250.301 59.75 L 249.949 59.6992 L 249.102 58.8984 L 248.801 58.8516 L 248.398 58.8008 L 248 58.8008 L 247.602 58.75 L 247.199 58.6992 L 246.801 58.6016 L 246.602 58.5508 L 246.449 58.4492 L 246.25 58.3984 L 246.102 58.3008 L 244.699 59.3984 L 244.398 59.3516 L 243.898 59.25 L 243.648 59.1484 L 243.398 59.0508 L 243.148 58.9492 L 242.898 58.8984 L 242.602 58.8984 L 240.852 58.5508 M 204.602 50.1016 L 205.051 49.9492 L 205.5 49.8008 L 205.898 49.6016 L 206.352 49.3984 L 206.801 49.1484 L 207.199 48.8516 L 207.648 48.5508 L 208.051 48.25 L 208.449 47.8984 L 208.898 47.5508 L 209.25 47.1992 L 209.699 46.8008 L 210.5 46.0508 L 211.301 45.25 L 212.051 44.4492 L 212.852 43.6992 L 213.25 43.3008 L 213.648 43 L 214 42.6484 L 214.398 42.3516 L 214.801 42 L 215.199 41.75 L 215.551 41.5 L 216 41.3008 L 216.352 41.1016 L 216.75 40.9492 L 217.148 40.8008 L 217.551 40.75 L 218.602 40.8008 L 218.898 40.8516 L 219.148 40.8984 L 219.449 40.9492 L 219.699 41.1016 L 220.199 41.3516 L 220.699 41.6484 L 221 41.75 L 221.25 41.8984 L 221.551 42.0508 L 221.852 42.1484 L 222.148 42.3008 L 222.5 42.3984 L 222.801 42.4492 L 223.199 42.4492 L 224.199 43.4492 L 224.602 43.3516 L 224.949 43.1992 L 225.25 43.1016 L 225.5 43.0508 L 225.602 42.9492 L 225.75 42.8984 L 225.852 42.8008 L 225.949 42.75 L 226.102 42.6016 L 226.199 42.5 L 226.301 42.3516 L 226.398 42.1992 L 230.102 42.3984 L 230.449 42.1484 L 230.852 41.8984 L 231.25 41.6484 L 232.148 41.25 L 232.602 41.1016 L 233.102 40.9492 L 233.551 40.8008 L 234.551 40.5508 L 235.551 40.3516 L 236.602 40.1484 L 237.602 39.8984 L 238.102 39.8008 L 238.602 39.6992 L 239.051 39.5508 L 239.551 39.3984 L 240.449 39.1016 L 240.852 38.8984 L 241.648 38.5 L 242 38.25 L 242.352 37.9492 L 242.648 37.6992 L 242.949 37.3984 L 243.199 37 L 243.449 36.6484 L 243.602 36.25 L 245.699 36.3516 L 245.949 36.1484 L 246.301 35.8516 L 246.699 35.4492 L 247.148 35.1484 L 247.648 34.75 L 247.898 34.6016 L 248.148 34.5 L 248.352 34.3516 L 248.602 34.3008 L 248.801 34.25 L 249 34.25 L 248.148 34.1016 L 247.25 34 L 246.398 33.8516 L 245.5 33.75 L 244.602 33.6992 L 243.699 33.6016 L 242.852 33.5508 L 241.949 33.5508 L 241.051 33.5 L 239.25 33.5 L 238.352 33.5508 L 237.449 33.6016 L 236.551 33.6484 L 235.699 33.75 L 234.801 33.8008 L 233.898 33.9492 L 233 34.0508 L 232.148 34.1992 L 231.25 34.3516 L 230.398 34.5 L 229.5 34.6992 L 228.648 34.8984 L 227.801 35.1016 L 226.949 35.3516 L 226.102 35.5508 L 225.25 35.8516 L 224.449 36.1016 L 223.602 36.3984 L 221.199 37.3008 L 220.449 37.6992 L 219.551 38.1016 L 218.602 38.5508 L 217.602 39.0508 L 216.551 39.6016 L 215.5 40.25 L 214.352 40.8984 L 213.25 41.6016 L 212.148 42.3008 L 211 43.0508 L 210.449 43.4492 L 209.949 43.8516 L 209.398 44.3008 L 208.852 44.6992 L 208.352 45.1016 L 207.898 45.5 L 207.398 45.9492 L 206.949 46.3984 L 206.449 46.8008 L 206.051 47.25 L 205.648 47.6992 L 205.25 48.1484 L 204.75 49.1992 L 204.602 50.1016" />
    <path style="stroke:none;fill-rule:evenodd;fill:rgb(68.627451%,69.411765%,71.372549%);fill-opacity:1" d="M 244.051 33.25 L 242.949 33.1484 L 240.75 33.1484 L 239.602 33.1992 L 238.5 33.25 L 237.449 33.3008 L 236.352 33.4492 L 235.25 33.6016 L 234.199 33.75 L 233.102 33.8984 L 232.051 34.1016 L 231.051 34.3516 L 229.949 34.6016 L 228.949 34.8984 L 227.949 35.1992 L 226.949 35.5508 L 225.949 35.8984 L 224.949 36.25 L 223.949 36.6484 L 223 37.1016 L 221.102 38 L 220.199 38.4492 L 219.25 39 L 218.398 39.5 L 217.5 40.0508 L 216.648 40.6016 L 215.75 41.1992 L 214.898 41.8008 L 214.102 42.3984 L 213.301 43.0508 L 212.5 43.6992 L 211.699 44.3984 L 210.949 45.1016 L 210.199 45.8008 L 209.5 46.5 L 208.801 47.25 L 208.102 48.0508 L 207.398 48.8008 L 206.75 49.6016 L 206.148 50.3984 L 205.5 51.25 L 204.949 52.1016 L 204.352 52.9492 L 203.801 53.8008 L 203.301 54.6992 L 202.75 55.5508 L 202.301 56.5 L 201.801 57.3984 L 201.398 58.3008 L 201 59.25 L 200.602 60.25 L 200.199 61.1992 L 199.852 62.1484 L 198.949 65.1484 L 198.75 66.1992 L 198.5 67.25 L 198.301 68.25 L 198.148 69.3008 L 198 70.3516 L 197.898 71.4492 L 197.852 72.5 L 198.5 72.5508 L 198.602 71.5 L 198.699 70.4492 L 198.852 69.3984 L 199 68.3516 L 199.148 67.3516 L 199.398 66.3008 L 199.602 65.3516 L 199.898 64.3008 L 200.199 63.3516 L 200.5 62.3516 L 200.852 61.3984 L 201.199 60.4492 L 201.602 59.5 L 202 58.5508 L 202.449 57.6484 L 202.898 56.6992 L 203.398 55.8516 L 203.852 54.9492 L 204.398 54.1016 L 205.5 52.3984 L 206.102 51.5508 L 206.699 50.75 L 207.301 49.9492 L 207.949 49.1484 L 208.648 48.3984 L 209.301 47.6484 L 210 46.8984 L 210.699 46.1992 L 212.199 44.8008 L 212.949 44.1484 L 214.551 42.8516 L 215.352 42.25 L 216.199 41.6484 L 217 41.1016 L 217.898 40.5508 L 218.75 40 L 219.648 39.5 L 220.551 39 L 221.449 38.5 L 222.398 38.0508 L 223.301 37.6016 L 224.25 37.1992 L 225.199 36.8008 L 226.199 36.4492 L 227.199 36.1016 L 228.148 35.75 L 229.199 35.4492 L 231.199 34.9492 L 232.25 34.6992 L 233.25 34.5 L 234.301 34.3008 L 235.352 34.1484 L 236.449 34 L 237.5 33.8984 L 238.551 33.8516 L 239.648 33.8008 L 240.75 33.75 L 241.852 33.75 L 242.949 33.8008 L 244.051 33.8516 L 244.051 33.25 M 197.852 72.5 L 197.801 73.6016 L 197.75 74.6484 L 197.75 75.75 L 197.852 77.8516 L 197.949 78.8984 L 198.051 79.9492 L 198.199 81 L 198.398 82 L 198.551 83.0508 L 199.301 86.0508 L 199.602 87.0508 L 199.898 88 L 200.301 89 L 200.648 89.9492 L 201 90.8984 L 201.449 91.8516 L 201.898 92.75 L 202.352 93.6992 L 202.801 94.6016 L 203.301 95.5 L 203.852 96.3516 L 204.398 97.1992 L 204.949 98.1016 L 205.551 98.8984 L 206.148 99.6992 L 206.801 100.551 L 207.449 101.352 L 208.102 102.148 L 209.5 103.648 L 210.25 104.398 L 210.949 105.102 L 211.75 105.801 L 212.5 106.5 L 213.301 107.148 L 214.102 107.801 L 214.949 108.449 L 215.801 109.051 L 216.648 109.648 L 217.5 110.199 L 218.398 110.75 L 219.301 111.301 L 220.25 111.801 L 221.148 112.301 L 222.102 112.75 L 223.051 113.199 L 224.051 113.648 L 225 114.051 L 226.051 114.398 L 228.051 115.102 L 229.102 115.449 L 230.102 115.699 L 231.199 116 L 232.25 116.199 L 233.352 116.449 L 234.398 116.602 L 236.602 116.898 L 237.699 117 L 238.852 117.102 L 238.852 116.5 L 237.75 116.449 L 236.699 116.352 L 235.602 116.199 L 234.5 116.051 L 233.449 115.852 L 232.398 115.648 L 231.352 115.398 L 230.301 115.148 L 229.301 114.852 L 228.25 114.551 L 227.25 114.25 L 226.25 113.898 L 224.352 113.102 L 223.352 112.699 L 222.398 112.25 L 221.5 111.801 L 220.551 111.301 L 219.648 110.801 L 218.801 110.25 L 217.898 109.75 L 217.051 109.148 L 216.199 108.602 L 215.352 108 L 214.551 107.352 L 213.75 106.699 L 212.949 106.051 L 212.199 105.398 L 211.449 104.699 L 209.301 102.551 L 208.648 101.801 L 207.352 100.199 L 206.699 99.3984 L 206.102 98.6016 L 205.551 97.8008 L 204.949 96.9492 L 204.449 96.1016 L 203.898 95.1992 L 203.398 94.3516 L 202.949 93.4492 L 202.5 92.5508 L 202.051 91.6484 L 201.648 90.6992 L 201.25 89.75 L 200.898 88.8008 L 200.551 87.8516 L 200.25 86.8984 L 199.949 85.8984 L 199.648 84.9492 L 199.449 83.9492 L 199.199 82.9492 L 199.051 81.9492 L 198.852 80.8984 L 198.699 79.8984 L 198.602 78.8516 L 198.5 77.8008 L 198.449 76.75 L 198.449 75.75 L 198.398 74.6484 L 198.449 73.6484 L 198.5 72.5508 L 197.852 72.5 M 238.852 117.102 L 239.949 117.148 L 241.051 117.199 L 242.199 117.199 L 243.301 117.148 L 244.398 117.102 L 245.449 117 L 246.551 116.898 L 247.602 116.801 L 248.699 116.602 L 249.75 116.398 L 251.852 116 L 252.898 115.75 L 253.898 115.449 L 254.949 115.148 L 255.949 114.801 L 256.949 114.449 L 257.949 114.051 L 258.898 113.699 L 259.898 113.25 L 260.801 112.801 L 261.75 112.352 L 262.699 111.852 L 263.602 111.352 L 264.5 110.852 L 265.398 110.301 L 266.25 109.699 L 267.102 109.148 L 267.949 108.551 L 268.75 107.898 L 269.602 107.301 L 270.352 106.602 L 271.148 105.949 L 272.648 104.551 L 273.352 103.801 L 274.102 103.051 L 274.801 102.301 L 275.449 101.5 L 276.102 100.699 L 276.75 99.8984 L 277.352 99.1016 L 277.949 98.25 L 278.5 97.3984 L 279.051 96.5 L 279.602 95.6484 L 280.602 93.8516 L 281.051 92.8984 L 281.5 92 L 281.898 91.0508 L 282.301 90.1016 L 282.648 89.1016 L 283 88.1016 L 283.352 87.1484 L 283.648 86.1484 L 283.898 85.1484 L 284.148 84.1016 L 284.352 83.0508 L 284.551 82 L 284.699 81 L 284.852 79.8984 L 284.949 78.8516 L 285.051 77.8008 L 284.352 77.75 L 284.301 78.8008 L 284.199 79.8516 L 284.051 80.8984 L 283.898 81.8984 L 283.5 84 L 283 86 L 282.699 87 L 282.398 87.9492 L 282 88.8984 L 281.648 89.8984 L 281.25 90.8008 L 280.898 91.75 L 280.449 92.6992 L 279.949 93.6016 L 279.5 94.5 L 279 95.3516 L 278.5 96.25 L 277.949 97.1016 L 277.398 97.9492 L 276.801 98.75 L 276.148 99.5508 L 275.551 100.352 L 274.898 101.148 L 274.25 101.949 L 273.551 102.699 L 272.898 103.398 L 272.148 104.102 L 271.398 104.852 L 270.648 105.5 L 269.898 106.199 L 269.148 106.801 L 268.301 107.449 L 267.5 108.102 L 266.699 108.699 L 265.852 109.25 L 265 109.801 L 264.102 110.352 L 263.25 110.852 L 262.301 111.352 L 261.398 111.852 L 260.5 112.301 L 259.551 112.75 L 258.602 113.148 L 257.648 113.551 L 256.648 113.898 L 255.699 114.25 L 254.699 114.551 L 253.699 114.898 L 251.699 115.398 L 250.648 115.648 L 249.602 115.852 L 248.602 116.051 L 247.5 116.199 L 246.449 116.301 L 245.398 116.449 L 244.301 116.5 L 243.25 116.551 L 242.148 116.602 L 241.051 116.602 L 239.949 116.551 L 238.852 116.5 L 238.852 117.102 M 285.051 77.8008 L 285.102 76.6992 L 285.148 75.6016 L 285.102 74.5508 L 285.102 73.5 L 285.051 72.4492 L 284.949 71.3984 L 284.801 70.3516 L 284.699 69.3516 L 284.301 67.25 L 284.102 66.25 L 283.852 65.25 L 283.551 64.25 L 283.301 63.25 L 282.949 62.3008 L 282.602 61.3516 L 282.25 60.3516 L 281.852 59.3984 L 281.449 58.5 L 281 57.5508 L 280.551 56.6484 L 279.551 54.8516 L 279 53.9492 L 278.449 53.1016 L 277.898 52.25 L 277.301 51.3984 L 276.699 50.5508 L 276.051 49.8008 L 275.398 48.9492 L 274.75 48.1992 L 274.051 47.4492 L 273.352 46.6484 L 272.648 45.9492 L 271.148 44.5508 L 270.352 43.8516 L 269.551 43.1992 L 268.75 42.5508 L 267.949 41.8984 L 267.102 41.3008 L 266.25 40.6992 L 265.352 40.1484 L 264.5 39.6016 L 263.551 39.0508 L 262.648 38.5508 L 261.75 38.0508 L 260.75 37.6016 L 259.801 37.1016 L 258.852 36.6992 L 257.852 36.3008 L 256.852 35.8984 L 255.852 35.5508 L 254.852 35.1992 L 253.801 34.8984 L 252.75 34.6484 L 251.699 34.3516 L 250.648 34.1016 L 249.551 33.8984 L 248.5 33.75 L 247.398 33.5508 L 246.301 33.4492 L 245.199 33.3008 L 244.051 33.25 L 244.051 33.8516 L 245.102 33.8984 L 246.199 34 L 247.301 34.1484 L 248.398 34.3008 L 251.551 34.8984 L 252.551 35.1992 L 253.602 35.4492 L 254.602 35.8008 L 255.602 36.1016 L 256.602 36.4492 L 257.602 36.8516 L 259.5 37.6484 L 260.449 38.1016 L 261.398 38.5508 L 262.301 39.0508 L 263.199 39.5508 L 264.102 40.0508 L 264.949 40.6016 L 265.852 41.1484 L 266.648 41.75 L 267.5 42.3516 L 268.301 43 L 269.148 43.6016 L 269.898 44.3008 L 270.648 44.9492 L 271.398 45.6484 L 272.148 46.3516 L 272.852 47.0508 L 274.25 48.5508 L 274.898 49.3008 L 275.551 50.1016 L 276.148 50.8984 L 276.75 51.6992 L 277.352 52.5508 L 277.898 53.3984 L 278.449 54.25 L 278.949 55.1016 L 279.449 56 L 279.949 56.8516 L 280.398 57.8008 L 280.801 58.6992 L 281.199 59.6016 L 281.602 60.5508 L 282 61.5 L 282.301 62.4492 L 282.648 63.4492 L 282.898 64.3984 L 283.199 65.3984 L 283.449 66.3516 L 283.648 67.3516 L 283.852 68.3984 L 284 69.3984 L 284.148 70.4492 L 284.352 72.4492 L 284.449 73.5 L 284.449 76.6484 L 284.352 77.75 L 285.051 77.8008 M 244.102 33.25 L 243.301 33.1992 L 241.699 33.1992 L 240.949 33.25 L 240.148 33.3516 L 239.352 33.4492 L 238.602 33.5508 L 237.801 33.75 L 237.051 33.8984 L 236.301 34.1016 L 235.5 34.3516 L 234.75 34.6016 L 234 34.8984 L 233.301 35.1484 L 232.551 35.5 L 231.852 35.8516 L 231.102 36.1992 L 230.398 36.6016 L 229.699 37.0508 L 229 37.4492 L 228.352 37.8984 L 227.648 38.3984 L 226.352 39.3984 L 225.699 40 L 225.051 40.5508 L 224.398 41.1016 L 223.199 42.3008 L 222.602 42.9492 L 222 43.6016 L 220.898 45 L 220.352 45.6992 L 219.801 46.3984 L 219.25 47.1484 L 218.75 47.8984 L 218.25 48.6992 L 217.75 49.4492 L 217.301 50.25 L 216.852 51.1016 L 216.398 51.8984 L 215.949 52.75 L 215.551 53.6016 L 215.102 54.5 L 214.75 55.3984 L 214.352 56.3008 L 214 57.1992 L 213.648 58.1016 L 213.301 59.0508 L 212.699 60.9492 L 212.449 61.9492 L 212.199 62.8984 L 211.699 64.8984 L 211.5 65.9492 L 211.301 66.9492 L 211.148 68 L 211 69.0508 L 210.852 70.0508 L 210.75 71.1016 L 210.648 72.1992 L 210.551 73.25 L 211.25 73.3008 L 211.301 72.1992 L 211.398 71.1992 L 211.5 70.1016 L 211.648 69.1016 L 211.801 68.0508 L 211.949 67.0508 L 212.148 66.0508 L 212.352 65.0508 L 212.852 63.0508 L 213.102 62.1016 L 213.398 61.1016 L 213.648 60.1484 L 213.949 59.25 L 214.301 58.3008 L 214.648 57.3984 L 215.352 55.6016 L 215.75 54.75 L 216.148 53.8516 L 216.551 53 L 217 52.1992 L 217.449 51.3516 L 217.898 50.5508 L 218.352 49.75 L 218.852 49 L 219.352 48.1992 L 219.852 47.4492 L 220.352 46.75 L 220.898 46.0508 L 221.449 45.3008 L 222 44.6484 L 222.551 43.9492 L 223.148 43.3516 L 223.699 42.75 L 224.301 42.1016 L 224.898 41.5508 L 225.551 40.9492 L 226.148 40.3984 L 226.801 39.8984 L 227.449 39.3516 L 228.102 38.8516 L 228.75 38.3984 L 229.398 37.9492 L 230.102 37.5 L 230.801 37.1016 L 231.449 36.75 L 232.148 36.3516 L 232.852 36 L 233.602 35.6992 L 234.301 35.3984 L 235.051 35.1484 L 235.75 34.8984 L 236.449 34.6992 L 237.199 34.5 L 238 34.3008 L 238.699 34.1484 L 239.449 34.0508 L 240.199 33.9492 L 241 33.8516 L 241.75 33.8008 L 243.301 33.8008 L 244.051 33.8516 L 244.102 33.25 M 210.551 73.25 L 210.5 74.3516 L 210.449 75.3984 L 210.449 77.5 L 210.5 78.5508 L 210.5 79.6016 L 210.602 80.6484 L 210.648 81.6992 L 210.75 82.6992 L 210.898 83.6992 L 211.051 84.75 L 211.148 85.75 L 211.352 86.6992 L 211.75 88.6992 L 211.949 89.6484 L 212.199 90.6016 L 212.449 91.5 L 213.051 93.3984 L 213.352 94.3008 L 213.699 95.1484 L 214 96.0508 L 214.398 96.8984 L 214.75 97.75 L 215.148 98.6016 L 215.551 99.4492 L 215.949 100.25 L 216.352 101.051 L 216.801 101.852 L 217.301 102.602 L 217.75 103.352 L 218.25 104.102 L 219.75 106.199 L 220.301 106.898 L 220.852 107.5 L 221.449 108.148 L 222 108.75 L 223.199 109.949 L 223.801 110.5 L 224.398 111.051 L 225.051 111.551 L 225.699 112.051 L 226.352 112.5 L 227 113 L 227.699 113.398 L 228.352 113.801 L 229.102 114.199 L 229.801 114.551 L 230.5 114.898 L 231.199 115.25 L 231.949 115.551 L 232.648 115.801 L 233.449 116.051 L 234.199 116.301 L 234.949 116.449 L 235.699 116.648 L 236.5 116.801 L 237.301 116.898 L 238.051 117 L 238.898 117.051 L 238.898 116.449 L 238.148 116.398 L 237.352 116.301 L 236.602 116.199 L 235.852 116.051 L 235.102 115.898 L 234.352 115.699 L 233.648 115.5 L 232.898 115.25 L 232.199 115 L 230.801 114.398 L 230.102 114.051 L 229.398 113.699 L 228.75 113.352 L 228.051 112.898 L 227.398 112.5 L 226.75 112.051 L 226.148 111.602 L 225.5 111.102 L 224.898 110.602 L 224.25 110.102 L 223.648 109.551 L 223.102 108.949 L 222.5 108.398 L 221.949 107.801 L 221.398 107.148 L 220.852 106.551 L 220.352 105.852 L 219.801 105.199 L 218.801 103.801 L 218.352 103.051 L 217.852 102.352 L 217.398 101.602 L 216.949 100.801 L 216.551 100 L 216.148 99.1992 L 215.75 98.3984 L 215.352 97.5508 L 215 96.6992 L 214.648 95.8516 L 214.301 95 L 214 94.1016 L 213.699 93.1992 L 213.398 92.3008 L 213.148 91.3984 L 212.898 90.4492 L 212.602 89.5 L 212.398 88.5508 L 212.199 87.6016 L 212 86.6484 L 211.852 85.6484 L 211.699 84.6484 L 211.551 83.6484 L 211.449 82.6484 L 211.352 81.6484 L 211.25 80.6484 L 211.199 79.6016 L 211.148 78.5508 L 211.148 77.5 L 211.102 76.4492 L 211.148 75.3984 L 211.199 74.3516 L 211.25 73.3008 L 210.551 73.25 M 238.898 117.051 L 239.648 117.102 L 240.449 117.102 L 241.25 117.051 L 242.051 117.051 L 242.852 116.949 L 243.602 116.852 L 244.398 116.699 L 245.148 116.551 L 245.898 116.352 L 246.699 116.199 L 247.398 115.949 L 248.199 115.699 L 248.898 115.398 L 249.648 115.102 L 250.398 114.801 L 251.102 114.449 L 251.801 114.051 L 252.551 113.648 L 253.199 113.25 L 253.898 112.852 L 254.602 112.352 L 255.301 111.898 L 255.949 111.398 L 256.602 110.852 L 257.25 110.301 L 257.852 109.75 L 258.5 109.148 L 259.148 108.602 L 259.75 107.949 L 260.352 107.352 L 260.898 106.648 L 261.5 106 L 262.602 104.602 L 263.148 103.852 L 263.648 103.148 L 264.199 102.352 L 264.699 101.602 L 265.148 100.801 L 265.648 100 L 266.102 99.1992 L 266.551 98.3516 L 266.949 97.5 L 267.398 96.6484 L 267.801 95.75 L 268.199 94.8984 L 268.551 94 L 268.898 93.0508 L 269.25 92.1484 L 269.602 91.1992 L 269.898 90.25 L 270.199 89.3008 L 270.5 88.3008 L 270.75 87.3516 L 270.949 86.3516 L 271.199 85.3516 L 271.398 84.3008 L 271.602 83.3008 L 271.801 82.25 L 271.949 81.1992 L 272.051 80.1484 L 272.199 79.1016 L 272.301 78.0508 L 272.352 76.9492 L 271.699 76.9492 L 271.602 78 L 271.398 80.1016 L 271.25 81.1484 L 271.102 82.1992 L 270.949 83.1992 L 270.551 85.1992 L 270.301 86.1992 L 270.102 87.1992 L 269.801 88.1484 L 269.551 89.1484 L 269.25 90.1016 L 268.949 91.0508 L 268.648 91.9492 L 268.301 92.8516 L 267.898 93.8008 L 267.551 94.6484 L 267.148 95.5508 L 266.75 96.3984 L 266.352 97.25 L 265.949 98.1016 L 265.5 98.9492 L 265.051 99.75 L 264.551 100.551 L 264.102 101.301 L 263.602 102.102 L 263.102 102.801 L 262.551 103.551 L 262.051 104.25 L 261.5 105 L 260.949 105.648 L 260.352 106.301 L 259.801 106.949 L 259.199 107.551 L 258.602 108.199 L 258 108.75 L 257.398 109.352 L 256.801 109.898 L 256.148 110.398 L 255.5 110.949 L 254.852 111.449 L 254.199 111.898 L 253.5 112.352 L 252.852 112.75 L 252.148 113.199 L 251.5 113.551 L 250.75 113.949 L 250.051 114.25 L 249.352 114.602 L 248.648 114.852 L 247.949 115.148 L 247.199 115.398 L 246.449 115.602 L 245.75 115.801 L 245 116 L 244.25 116.148 L 242.75 116.352 L 241.949 116.449 L 241.199 116.449 L 240.449 116.5 L 239.699 116.5 L 238.898 116.449 L 238.898 117.051 M 272.352 76.9492 L 272.398 75.8984 L 272.449 74.8516 L 272.449 71.6992 L 272.398 70.6484 L 272.352 69.6016 L 272.25 68.5508 L 272.148 67.5508 L 272.051 66.5 L 271.898 65.5508 L 271.75 64.5508 L 271.352 62.5508 L 271.148 61.6016 L 270.949 60.6484 L 270.449 58.75 L 270.148 57.8008 L 269.898 56.8984 L 269.551 56 L 269.25 55.1016 L 268.898 54.25 L 268.551 53.3516 L 268.148 52.5 L 267.801 51.6484 L 267.398 50.8516 L 266.949 50.0508 L 266.551 49.1992 L 266.102 48.4492 L 265.648 47.6992 L 265.148 46.9492 L 264.699 46.1992 L 264.199 45.4492 L 263.648 44.75 L 263.148 44.1016 L 262.602 43.3984 L 262.051 42.75 L 261.5 42.1484 L 260.898 41.5 L 260.352 40.8984 L 259.75 40.3516 L 259.148 39.8008 L 258.5 39.25 L 257.852 38.75 L 257.25 38.25 L 256.602 37.75 L 255.949 37.3008 L 255.25 36.8516 L 254.551 36.4492 L 253.898 36.0508 L 253.199 35.6992 L 252.449 35.3516 L 251.75 35.0508 L 251 34.75 L 250.301 34.5 L 248.801 34 L 248 33.8008 L 247.25 33.6484 L 246.5 33.5 L 245.699 33.3984 L 244.898 33.3008 L 244.102 33.25 L 244.051 33.8516 L 244.852 33.8984 L 246.352 34.1016 L 247.102 34.1992 L 247.852 34.3984 L 248.602 34.6016 L 249.301 34.8008 L 250.051 35.0508 L 250.75 35.3008 L 251.449 35.6016 L 252.148 35.8984 L 252.852 36.1992 L 253.551 36.5508 L 254.199 36.9492 L 254.852 37.3516 L 255.5 37.8008 L 256.199 38.1992 L 256.801 38.6992 L 257.449 39.1484 L 258.051 39.6992 L 258.648 40.1992 L 259.852 41.3008 L 260.398 41.8984 L 261 42.5 L 261.551 43.1484 L 262.051 43.75 L 262.602 44.3984 L 263.102 45.1016 L 263.602 45.75 L 264.102 46.5 L 264.602 47.1992 L 265.5 48.6992 L 265.949 49.5 L 266.352 50.3008 L 266.75 51.1016 L 267.199 51.8984 L 267.551 52.75 L 267.898 53.5508 L 268.25 54.4492 L 268.602 55.3008 L 268.949 56.1992 L 269.25 57.0508 L 269.5 57.9492 L 269.801 58.8984 L 270.051 59.8008 L 270.301 60.75 L 270.5 61.6992 L 270.75 62.6484 L 270.898 63.6016 L 271.102 64.6016 L 271.199 65.6016 L 271.352 66.6016 L 271.449 67.6016 L 271.551 68.6016 L 271.648 69.6484 L 271.699 70.6484 L 271.801 72.75 L 271.801 73.75 L 271.75 74.8008 L 271.75 75.8516 L 271.699 76.9492 L 272.352 76.9492 M 244.102 33.6992 L 243.75 33.6992 L 238.602 116.75 L 239.25 116.801 L 244.398 33.6992 L 244.102 33.6992 M 269.398 42.6484 L 269.648 42.8516 L 269.801 43.0508 L 270 43.25 L 270.102 43.4492 L 270.199 43.6484 L 270.301 43.8516 L 270.352 44 L 270.352 44.3008 L 270.301 44.4492 L 270.301 44.5508 L 270.199 44.6992 L 270.148 44.8516 L 270.051 45 L 269.898 45.1016 L 269.75 45.25 L 269.551 45.3984 L 269.352 45.5 L 269.102 45.6484 L 268.852 45.75 L 268.602 45.8984 L 268.301 46 L 268 46.1484 L 267.648 46.25 L 266.898 46.4492 L 266.102 46.6484 L 265.199 46.8008 L 264.25 47 L 263.199 47.1016 L 262.148 47.25 L 261 47.3516 L 259.852 47.3984 L 258.551 47.5 L 257.301 47.5508 L 256 47.6016 L 254.648 47.6016 L 253.25 47.6484 L 250.398 47.6484 L 248.949 47.6016 L 247.5 47.5508 L 246 47.5 L 244.551 47.3984 L 243.051 47.3516 L 241.551 47.25 L 240.102 47.1016 L 238.602 47 L 237.148 46.8516 L 235.699 46.6992 L 234.301 46.5508 L 232.898 46.3516 L 231.5 46.1484 L 230.148 46 L 228.852 45.75 L 227.602 45.5508 L 226.398 45.3516 L 225.199 45.1016 L 224.102 44.8516 L 223.051 44.5508 L 222.051 44.3008 L 221.102 44.0508 L 220.199 43.75 L 219.398 43.5 L 218.699 43.1992 L 218.352 43.0508 L 218.051 42.8984 L 217.551 42.6016 L 217.25 42.3984 L 216.852 42.1016 L 216.551 41.8008 L 216.449 41.6484 L 216.352 41.5 L 216.25 41.3516 L 216.199 41.1992 L 216.199 40.8008 L 216.25 40.6484 L 216.352 40.3516 L 216.5 40.1992 L 216.602 40.0508 L 216.801 39.8516 L 217 39.6484 L 217.25 39.5 L 216.852 39.0508 L 216.102 39.6484 L 215.949 39.8516 L 215.801 40.0508 L 215.648 40.25 L 215.602 40.5 L 215.5 40.6992 L 215.5 41.1484 L 215.551 41.3516 L 215.648 41.6016 L 215.75 41.8008 L 215.898 41.9492 L 216.051 42.1484 L 216.199 42.3516 L 216.398 42.5508 L 216.648 42.6992 L 216.898 42.8984 L 217.148 43.0508 L 217.449 43.25 L 217.75 43.3984 L 218.051 43.5508 L 218.398 43.6992 L 219.148 44 L 220.852 44.6016 L 221.852 44.8984 L 222.852 45.1484 L 223.949 45.3984 L 225.051 45.6484 L 227.449 46.1484 L 228.75 46.3516 L 230.051 46.5508 L 231.398 46.75 L 232.801 46.9492 L 234.199 47.1484 L 235.648 47.3008 L 237.102 47.4492 L 238.551 47.5508 L 240.051 47.6992 L 241.5 47.8008 L 243.051 47.8984 L 244.5 48 L 246 48.1016 L 247.5 48.1484 L 248.949 48.1992 L 250.398 48.1992 L 251.852 48.25 L 254.648 48.25 L 257.352 48.1484 L 258.602 48.1016 L 259.852 48 L 261.102 47.9492 L 262.25 47.8516 L 263.352 47.6992 L 264.352 47.5508 L 265.352 47.3984 L 266.25 47.1992 L 267.102 47 L 267.852 46.8008 L 268.25 46.6992 L 268.551 46.5508 L 268.898 46.3984 L 269.199 46.3008 L 269.449 46.1484 L 269.75 46 L 269.949 45.8516 L 270.199 45.6992 L 270.398 45.5508 L 270.551 45.3516 L 270.699 45.1484 L 270.852 44.9492 L 270.949 44.75 L 271 44.5508 L 271 43.8984 L 270.898 43.6484 L 270.852 43.3984 L 270.699 43.1992 L 270.551 42.9492 L 270.352 42.6992 L 270.148 42.4492 L 269.898 42.25 L 269.398 42.6484 M 282.398 56.6992 L 282.449 57.0508 L 282.449 57.3984 L 282.398 57.75 L 282.352 58.1016 L 282.25 58.3984 L 282.148 58.75 L 282.051 59.0508 L 281.852 59.3516 L 281.648 59.6484 L 281.449 59.9492 L 281.199 60.25 L 280.648 60.8008 L 280.301 61.0508 L 279.949 61.3008 L 279.602 61.5508 L 279.199 61.8008 L 278.75 62.0508 L 278.352 62.3008 L 276.852 62.8984 L 276.301 63.1484 L 275.75 63.3008 L 275.199 63.5 L 274.602 63.6992 L 274 63.8516 L 273.352 64.0508 L 272.699 64.1992 L 272.051 64.3516 L 271.352 64.4492 L 270.648 64.6016 L 269.949 64.75 L 269.199 64.8516 L 268.5 65 L 267.699 65.1016 L 266.148 65.3008 L 264.5 65.4492 L 262.898 65.6016 L 261.148 65.6992 L 259.398 65.8008 L 257.602 65.8516 L 255.801 65.8984 L 253.949 65.8516 L 252.102 65.8984 L 250.199 65.8516 L 248.301 65.75 L 246.398 65.6484 L 244.449 65.5508 L 242.551 65.3984 L 240.602 65.25 L 238.648 65.1016 L 236.75 64.8984 L 234.852 64.6484 L 233 64.4492 L 231.102 64.1484 L 229.25 63.8516 L 227.449 63.6016 L 225.648 63.25 L 223.898 62.8984 L 222.199 62.5508 L 220.5 62.1992 L 218.898 61.8008 L 217.352 61.3984 L 215.801 60.9492 L 214.352 60.5 L 213 60.0508 L 211.648 59.5508 L 211 59.3516 L 210.398 59.1016 L 209.801 58.8516 L 209.25 58.6016 L 208.699 58.3008 L 208.148 58.0508 L 207.602 57.8008 L 207.148 57.5508 L 206.648 57.3008 L 206.199 57 L 205.801 56.75 L 205.398 56.4492 L 205.051 56.1992 L 204.648 55.8984 L 204.352 55.6016 L 204.051 55.3516 L 203.75 55.0508 L 203.5 54.75 L 203.102 54.1484 L 202.898 53.8984 L 202.75 53.6016 L 202.648 53.3008 L 202.551 53.0508 L 202.5 52.75 L 202.5 51.8008 L 201.852 51.75 L 201.801 52.1016 L 201.801 52.4492 L 201.852 52.8008 L 201.898 53.1484 L 202.051 53.4492 L 202.148 53.8008 L 202.301 54.1484 L 202.5 54.5 L 202.699 54.8008 L 202.949 55.1016 L 203.25 55.3984 L 203.551 55.75 L 203.852 56 L 204.199 56.3008 L 204.602 56.6016 L 204.949 56.8984 L 205.398 57.1992 L 205.852 57.5 L 206.301 57.75 L 206.801 58.0508 L 207.301 58.3008 L 207.801 58.6016 L 208.352 58.8516 L 208.949 59.1016 L 209.551 59.3516 L 210.148 59.6016 L 210.75 59.8516 L 211.398 60.1484 L 212.75 60.6016 L 214.148 61.0508 L 215.602 61.5 L 217.148 61.9492 L 218.699 62.3516 L 220.352 62.75 L 222.051 63.1016 L 223.75 63.5 L 225.5 63.8516 L 227.301 64.1484 L 229.148 64.4492 L 231 64.75 L 232.898 65 L 234.75 65.25 L 236.699 65.5 L 238.602 65.6484 L 240.551 65.8516 L 244.449 66.1484 L 246.352 66.25 L 248.25 66.3516 L 250.199 66.3984 L 252.102 66.4492 L 257.648 66.4492 L 259.449 66.3516 L 261.199 66.25 L 262.949 66.1992 L 264.602 66.0508 L 266.25 65.8516 L 267.801 65.6484 L 268.602 65.5508 L 269.352 65.4492 L 270.102 65.3008 L 270.801 65.1992 L 271.551 65.0508 L 272.25 64.8984 L 272.898 64.75 L 273.551 64.6016 L 274.199 64.4492 L 274.852 64.25 L 275.449 64.0508 L 276 63.8516 L 276.602 63.6484 L 277.148 63.4492 L 278.148 63.0508 L 278.648 62.8008 L 279.102 62.5508 L 280 62.0508 L 280.398 61.8008 L 281.102 61.1992 L 281.398 60.9492 L 281.699 60.6016 L 282 60.3008 L 282.25 60 L 282.449 59.6484 L 282.648 59.3008 L 282.801 58.8984 L 282.898 58.5508 L 283 58.1992 L 283.102 57.8516 L 283.102 57.0508 L 283.051 56.6484 L 282.398 56.6992 M 287.5 71.1016 L 287.551 71.6484 L 287.602 72.1992 L 287.602 72.6992 L 287.551 73.1992 L 287.449 73.6992 L 287.352 74.1992 L 287.199 74.6484 L 287.051 75.1016 L 286.801 75.6016 L 286.602 76.0508 L 286.301 76.4492 L 286 76.8984 L 285.648 77.3008 L 285.301 77.75 L 284.898 78.1484 L 284.5 78.5 L 284.051 78.8984 L 283.551 79.3008 L 283.051 79.6484 L 281.949 80.3516 L 281.398 80.6992 L 280.75 81 L 280.148 81.3516 L 279.5 81.6484 L 278.102 82.25 L 277.352 82.5508 L 275.852 83.0508 L 274.25 83.5508 L 273.398 83.8008 L 272.551 84 L 271.699 84.25 L 270.801 84.4492 L 269.898 84.6484 L 269 84.8516 L 268.051 85 L 267.102 85.1992 L 266.148 85.3008 L 265.148 85.5 L 264.199 85.6016 L 263.199 85.75 L 262.148 85.8984 L 261.148 86 L 260.102 86.1016 L 259.051 86.1992 L 258 86.25 L 256.949 86.3516 L 255.852 86.3984 L 254.801 86.4492 L 253.699 86.5 L 252.602 86.5508 L 251.5 86.5508 L 250.398 86.6016 L 245.949 86.6016 L 243.699 86.5508 L 241.449 86.3984 L 240.301 86.3516 L 239.199 86.3008 L 238.051 86.1992 L 236.949 86.1016 L 235.801 86.0508 L 234.699 85.9492 L 233.602 85.8008 L 232.5 85.6992 L 231.352 85.5508 L 230.25 85.3984 L 229.199 85.25 L 228.102 85.1016 L 227 84.9492 L 224.898 84.5508 L 223.852 84.3516 L 222.801 84.1484 L 221.75 83.9492 L 220.75 83.75 L 219.75 83.5 L 218.699 83.25 L 217.75 83.0508 L 216.801 82.75 L 215.852 82.5 L 214.898 82.25 L 213.949 81.9492 L 213.051 81.6992 L 212.148 81.3516 L 211.25 81.1016 L 210.398 80.75 L 209.551 80.4492 L 208.75 80.1016 L 207.949 79.75 L 207.148 79.4492 L 206.398 79.0508 L 205.648 78.6992 L 204.898 78.3516 L 204.199 77.9492 L 203.551 77.5508 L 202.852 77.1992 L 202.25 76.8008 L 201.648 76.3516 L 201.102 75.9492 L 200.551 75.5508 L 200 75.1016 L 199.5 74.6484 L 198.602 73.75 L 198.148 73.3008 L 197.801 72.8008 L 197.449 72.3516 L 197.102 71.8516 L 196.801 71.3516 L 196.551 70.8516 L 196.301 70.3984 L 196.102 69.8516 L 195.949 69.3516 L 195.852 68.8008 L 195.75 68.3008 L 195.648 67.75 L 195.602 67.1992 L 195.648 66.6484 L 195.648 66.0508 L 195.75 65.5 L 195.102 65.3984 L 195 66 L 194.949 66.6016 L 194.949 67.1992 L 195 67.8008 L 195.051 68.3516 L 195.148 68.8984 L 195.301 69.4492 L 195.5 70.0508 L 195.699 70.6016 L 196.199 71.6016 L 196.5 72.1484 L 196.852 72.6484 L 197.648 73.6484 L 198.102 74.1016 L 199 75.1016 L 199.551 75.5 L 200.102 75.9492 L 200.648 76.3984 L 201.25 76.8008 L 201.852 77.25 L 202.5 77.6484 L 203.199 78.0508 L 203.852 78.4492 L 204.602 78.8516 L 205.301 79.1992 L 206.051 79.6016 L 206.852 79.9492 L 207.648 80.3008 L 208.449 80.6484 L 209.301 80.9492 L 210.148 81.3008 L 211 81.6016 L 211.898 81.8984 L 212.801 82.25 L 213.75 82.5 L 214.699 82.8008 L 215.602 83.0508 L 216.602 83.3516 L 217.551 83.6016 L 219.551 84.1016 L 220.602 84.3008 L 221.602 84.5 L 222.648 84.75 L 224.75 85.1484 L 225.852 85.3516 L 226.898 85.5 L 228 85.6484 L 229.102 85.8516 L 230.199 86 L 231.301 86.1484 L 232.398 86.25 L 233.5 86.3984 L 234.648 86.5 L 235.75 86.6016 L 236.898 86.6992 L 238 86.8008 L 239.148 86.8984 L 240.301 86.9492 L 241.398 87 L 243.648 87.1016 L 245.898 87.1484 L 247.051 87.1992 L 250.449 87.1992 L 251.551 87.1484 L 252.648 87.1484 L 253.75 87.1016 L 254.801 87.0508 L 255.898 87 L 257 86.8984 L 258.102 86.8516 L 259.102 86.8008 L 260.199 86.6484 L 261.25 86.5508 L 262.25 86.4492 L 263.301 86.3516 L 264.301 86.1992 L 265.301 86.0508 L 266.301 85.8984 L 267.25 85.75 L 268.199 85.5508 L 269.148 85.3984 L 270.051 85.1992 L 270.949 85 L 271.898 84.8008 L 272.75 84.6016 L 273.602 84.3516 L 274.449 84.1016 L 275.301 83.8516 L 276.102 83.6016 L 276.852 83.3516 L 279.102 82.4492 L 279.801 82.1484 L 280.449 81.8516 L 281.102 81.5508 L 281.75 81.1992 L 282.352 80.8516 L 282.949 80.5 L 283.449 80.1016 L 284 79.75 L 284.5 79.3516 L 284.949 78.9492 L 285.398 78.5508 L 285.801 78.1016 L 286.199 77.6992 L 286.551 77.1992 L 286.898 76.75 L 287.148 76.3008 L 287.398 75.8008 L 287.648 75.3516 L 287.852 74.8516 L 288 74.3516 L 288.102 73.8008 L 288.199 73.25 L 288.25 72.75 L 288.25 72.1992 L 288.199 71.6016 L 288.148 71.0508 L 287.5 71.1016 M 281.898 95.8984 L 281.449 96.3008 L 281 96.6484 L 280.551 97 L 280.102 97.3984 L 279.602 97.75 L 279.148 98.1016 L 278.648 98.4492 L 278.148 98.8008 L 277.648 99.1016 L 277.148 99.4492 L 276.602 99.75 L 276.102 100.051 L 275 100.648 L 273.898 101.25 L 272.75 101.801 L 271.602 102.301 L 270.398 102.801 L 269.199 103.301 L 267.949 103.75 L 266.699 104.148 L 265.449 104.551 L 264.148 104.852 L 262.852 105.199 L 261.5 105.551 L 260.148 105.801 L 257.352 106.301 L 255.949 106.5 L 254.551 106.648 L 253.148 106.801 L 251.699 106.898 L 250.25 107 L 248.75 107.051 L 247.301 107.102 L 245.852 107.148 L 244.352 107.102 L 242.852 107.051 L 241.398 107 L 239.898 106.898 L 238.398 106.801 L 236.898 106.648 L 233.898 106.25 L 232.449 106.051 L 230.949 105.75 L 229.5 105.5 L 228 105.199 L 226.5 104.852 L 225.051 104.5 L 223.602 104.102 L 222.199 103.699 L 220.75 103.25 L 219.352 102.75 L 217.949 102.301 L 216.551 101.75 L 215.148 101.199 L 213.801 100.648 L 212.449 100.051 L 211.148 99.4492 L 209.852 98.75 L 208.551 98.1016 L 207.301 97.3516 L 206.051 96.6484 L 204.852 95.8984 L 203.648 95.1016 L 202.449 94.3008 L 201.898 93.8984 L 201.352 93.4492 L 200.801 93.0508 L 200.25 92.6016 L 199.699 92.1484 L 199.148 91.6992 L 198.602 91.25 L 198.102 90.8008 L 197.602 91.1992 L 198.148 91.6484 L 198.699 92.1484 L 199.25 92.6016 L 200.352 93.5 L 200.898 93.8984 L 201.449 94.3516 L 202.051 94.75 L 203.25 95.6016 L 204.449 96.3984 L 205.699 97.1484 L 206.898 97.8984 L 208.199 98.6016 L 209.5 99.3008 L 210.852 99.9492 L 212.148 100.551 L 213.5 101.148 L 214.898 101.75 L 216.25 102.301 L 217.699 102.852 L 219.102 103.352 L 220.551 103.801 L 221.949 104.25 L 223.449 104.648 L 224.898 105.051 L 226.352 105.398 L 227.852 105.75 L 230.852 106.352 L 232.352 106.602 L 233.801 106.852 L 235.352 107.051 L 236.801 107.25 L 238.352 107.398 L 241.352 107.602 L 242.852 107.648 L 245.852 107.75 L 247.352 107.699 L 248.801 107.648 L 250.25 107.602 L 251.75 107.5 L 253.199 107.398 L 254.648 107.25 L 256.051 107.051 L 257.5 106.852 L 258.898 106.648 L 260.301 106.398 L 261.648 106.102 L 263 105.801 L 264.352 105.449 L 265.648 105.051 L 266.949 104.699 L 268.25 104.25 L 269.5 103.801 L 270.699 103.352 L 271.898 102.852 L 273.102 102.301 L 274.25 101.75 L 275.352 101.148 L 276.449 100.551 L 277 100.25 L 277.5 99.8984 L 278.051 99.6016 L 279.051 98.8984 L 279.551 98.5508 L 280.051 98.1992 L 280.551 97.8008 L 281 97.4492 L 281.449 97.1016 L 281.898 96.6992 L 282.352 96.3008 L 281.898 95.8984 M 287.602 69.6016 L 287.75 70.6016 L 287.898 71.6484 L 288 72.6992 L 288.102 74.8008 L 288.102 76.8984 L 288.051 78 L 288.699 78 L 288.699 76.9492 L 288.75 75.8516 L 288.75 74.8008 L 288.699 73.75 L 288.602 72.6484 L 288.5 71.6016 L 288.398 70.5508 L 288.25 69.5 L 288.051 68.5 L 287.551 66.3984 L 287.301 65.3984 L 287 64.3984 L 286.699 63.4492 L 286.352 62.4492 L 285.949 61.4492 L 285.551 60.5 L 285.102 59.5508 L 284.648 58.6016 L 284.199 57.6992 L 283.648 56.75 L 283.148 55.8516 L 282.602 54.9492 L 282 54.1016 L 281.398 53.1992 L 280.801 52.3516 L 280.148 51.5 L 279.449 50.6484 L 278.801 49.8516 L 278.102 49.0508 L 277.352 48.3008 L 276.602 47.5 L 275.852 46.75 L 275.051 46 L 274.199 45.3008 L 273.398 44.6016 L 272.551 43.8984 L 271.699 43.25 L 270.801 42.6016 L 269.898 41.9492 L 269 41.3516 L 268.051 40.6992 L 267.102 40.1484 L 266.102 39.6016 L 265.148 39.0508 L 264.148 38.5508 L 263.102 38.0508 L 262.102 37.5508 L 261.051 37.1016 L 260 36.6992 L 258.898 36.25 L 257.852 35.8984 L 256.75 35.5508 L 255.602 35.1992 L 254.5 34.8984 L 253.352 34.6016 L 252.199 34.3008 L 251.051 34.0508 L 249.852 33.8516 L 248.699 33.6484 L 246.301 33.3516 L 245.102 33.1992 L 243.898 33.1484 L 243.852 33.6992 L 245.051 33.8008 L 246.25 33.8984 L 247.398 34.0508 L 248.602 34.1992 L 249.75 34.3984 L 250.898 34.6016 L 252.051 34.8516 L 253.199 35.1016 L 254.301 35.3984 L 255.398 35.75 L 256.5 36.0508 L 257.602 36.3984 L 258.699 36.8008 L 259.75 37.1992 L 260.75 37.6484 L 261.801 38.0508 L 262.852 38.5508 L 263.801 39.0508 L 265.801 40.0508 L 266.75 40.6484 L 267.699 41.1992 L 268.602 41.75 L 269.5 42.3984 L 270.398 43 L 271.301 43.6484 L 272.148 44.3008 L 272.949 45 L 273.801 45.6992 L 274.602 46.3984 L 275.398 47.1484 L 276.148 47.8516 L 276.898 48.6484 L 277.602 49.3984 L 278.301 50.1992 L 278.949 51 L 279.648 51.8008 L 280.25 52.6484 L 280.898 53.5 L 281.449 54.3516 L 282.051 55.1992 L 282.602 56.1016 L 283.602 57.8984 L 284.051 58.8516 L 284.5 59.75 L 284.949 60.6992 L 285.352 61.6484 L 285.75 62.6016 L 286.051 63.6016 L 286.398 64.5508 L 286.699 65.5508 L 287.199 67.5508 L 287.602 69.6016 M 288.051 78 L 287.949 79.0508 L 287.852 80.1016 L 287.699 81.1484 L 287.551 82.1992 L 287.352 83.25 L 286.852 85.25 L 286.25 87.25 L 285.898 88.1992 L 285.551 89.1992 L 285.148 90.1484 L 284.75 91.1016 L 284.301 92.0508 L 283.852 92.9492 L 283.352 93.8516 L 282.852 94.75 L 282.301 95.6484 L 281.699 96.5 L 281.148 97.3516 L 280.551 98.1992 L 279.898 99.0508 L 279.25 99.8516 L 278.602 100.648 L 277.898 101.449 L 277.148 102.199 L 276.449 102.949 L 275.699 103.648 L 274.898 104.398 L 274.102 105.102 L 273.301 105.75 L 272.5 106.449 L 271.648 107.102 L 270.75 107.699 L 269.852 108.352 L 269 108.898 L 268.051 109.5 L 267.148 110.051 L 266.199 110.551 L 265.25 111.102 L 264.25 111.551 L 263.25 112.051 L 261.25 112.949 L 260.199 113.352 L 259.148 113.75 L 258.102 114.102 L 257.051 114.449 L 255.949 114.75 L 254.852 115.051 L 253.801 115.352 L 252.648 115.551 L 251.551 115.801 L 250.398 116 L 249.301 116.148 L 248.102 116.301 L 246.949 116.449 L 245.801 116.551 L 244.602 116.602 L 243.449 116.699 L 241.051 116.699 L 239.898 116.648 L 238.648 116.602 L 238.648 117.199 L 239.852 117.25 L 243.5 117.25 L 244.648 117.199 L 245.852 117.102 L 247.051 117 L 248.199 116.898 L 249.352 116.75 L 250.551 116.551 L 251.699 116.352 L 252.801 116.148 L 253.949 115.852 L 255.051 115.602 L 256.148 115.301 L 257.25 114.949 L 258.352 114.602 L 259.398 114.25 L 260.449 113.852 L 261.5 113.449 L 262.551 113 L 263.551 112.551 L 265.551 111.551 L 266.5 111.051 L 267.5 110.5 L 268.449 109.949 L 269.352 109.352 L 270.25 108.801 L 271.148 108.148 L 272.051 107.5 L 272.898 106.852 L 273.75 106.199 L 274.551 105.5 L 275.398 104.75 L 276.148 104.051 L 277.648 102.551 L 278.398 101.75 L 279.051 101 L 279.75 100.199 L 280.449 99.3516 L 281.051 98.5 L 281.648 97.6484 L 282.25 96.8008 L 282.852 95.8984 L 283.398 95.0508 L 283.898 94.1016 L 284.398 93.1992 L 284.898 92.25 L 285.352 91.3008 L 285.75 90.3516 L 286.148 89.3516 L 286.5 88.3984 L 286.852 87.3984 L 287.199 86.3984 L 287.449 85.3984 L 287.699 84.3516 L 287.949 83.3516 L 288.148 82.3008 L 288.352 81.25 L 288.5 80.1484 L 288.602 79.1016 L 288.699 78 L 288.051 78 M 238.648 116.602 L 237.449 116.551 L 236.25 116.398 L 235.102 116.301 L 233.898 116.102 L 232.75 115.898 L 231.602 115.699 L 230.449 115.449 L 229.301 115.199 L 228.148 114.898 L 227.051 114.602 L 225.949 114.25 L 224.898 113.898 L 223.801 113.5 L 222.75 113.102 L 221.699 112.699 L 220.648 112.25 L 219.648 111.75 L 218.648 111.301 L 217.648 110.801 L 216.648 110.25 L 215.75 109.699 L 214.801 109.148 L 213.852 108.551 L 212.949 107.949 L 212.051 107.301 L 211.199 106.648 L 210.352 106 L 209.5 105.352 L 208.648 104.648 L 207.852 103.898 L 207.102 103.199 L 205.602 101.699 L 204.852 100.898 L 204.148 100.102 L 203.5 99.3008 L 202.801 98.5 L 202.148 97.6484 L 201.602 96.8516 L 200.949 95.9492 L 200.398 95.1016 L 199.852 94.1992 L 199.352 93.3008 L 198.852 92.3984 L 198.352 91.5 L 197.949 90.5508 L 197.5 89.6016 L 197.102 88.6484 L 196.699 87.6992 L 196.398 86.6992 L 196.051 85.75 L 195.75 84.75 L 195.25 82.75 L 195.051 81.75 L 194.852 80.6992 L 194.699 79.6992 L 194.551 78.6484 L 194.449 77.6484 L 194.398 76.6016 L 194.352 75.5508 L 194.352 73.3984 L 194.398 72.3516 L 193.75 72.3008 L 193.699 73.3516 L 193.699 75.5508 L 193.75 76.6016 L 193.852 77.6484 L 193.949 78.6992 L 194.051 79.75 L 194.199 80.8008 L 194.398 81.8516 L 194.898 83.8516 L 195.148 84.8984 L 195.75 86.8984 L 196.102 87.8516 L 196.5 88.8516 L 196.898 89.8008 L 197.352 90.75 L 197.801 91.6992 L 198.301 92.6484 L 198.801 93.5508 L 199.301 94.4492 L 199.852 95.3516 L 200.449 96.25 L 201.051 97.1016 L 201.648 97.9492 L 202.301 98.8008 L 203 99.6484 L 203.648 100.449 L 204.352 101.25 L 205.102 102.051 L 205.852 102.801 L 206.648 103.551 L 207.398 104.301 L 208.199 105.051 L 209.051 105.75 L 209.898 106.449 L 210.801 107.102 L 211.648 107.75 L 212.551 108.398 L 213.5 109 L 214.398 109.602 L 215.352 110.148 L 216.352 110.75 L 219.352 112.25 L 220.398 112.75 L 221.449 113.199 L 222.5 113.602 L 223.551 114.051 L 224.648 114.398 L 225.75 114.801 L 226.852 115.102 L 228 115.449 L 229.148 115.75 L 230.301 116 L 231.449 116.25 L 232.602 116.449 L 233.801 116.648 L 235 116.801 L 236.199 116.949 L 237.398 117.051 L 238.648 117.199 L 238.648 116.602 M 194.398 72.3516 L 193.75 72.3008 L 193.852 71.1992 L 193.949 70.1484 L 194.102 69.0508 L 194.301 68.0508 L 194.699 65.9492 L 195 64.9492 L 195.25 63.8984 L 195.602 62.8984 L 195.949 61.8984 L 196.301 60.8984 L 196.699 59.9492 L 197.102 59 L 197.551 58.0508 L 198.051 57.1016 L 198.551 56.1992 L 199.051 55.3008 L 199.602 54.3984 L 200.199 53.5 L 200.75 52.6484 L 201.398 51.8008 L 202 50.9492 L 202.648 50.1484 L 203.398 49.3516 L 204.051 48.5508 L 204.801 47.75 L 206.301 46.25 L 207.102 45.5 L 207.898 44.8008 L 208.699 44.1484 L 209.551 43.4492 L 210.449 42.8008 L 211.301 42.1484 L 212.199 41.5508 L 213.102 40.9492 L 214.051 40.3516 L 215 39.8008 L 215.898 39.25 L 218.898 37.75 L 219.898 37.3008 L 220.949 36.8516 L 222 36.4492 L 223.051 36.0508 L 224.148 35.6992 L 225.199 35.3516 L 226.301 35 L 227.398 34.6992 L 228.551 34.4492 L 229.648 34.1992 L 230.801 33.9492 L 231.949 33.75 L 233.102 33.6016 L 234.25 33.4492 L 235.449 33.3008 L 236.648 33.1992 L 237.801 33.1016 L 239.051 33.1016 L 240.25 33.0508 L 241.449 33.0508 L 242.648 33.1016 L 243.898 33.1484 L 243.852 33.6992 L 242.602 33.6484 L 241.398 33.6016 L 240.25 33.6016 L 239.051 33.6484 L 237.852 33.6992 L 236.699 33.75 L 235.5 33.8516 L 234.352 34 L 233.199 34.1484 L 232.051 34.3008 L 230.949 34.5 L 229.801 34.75 L 228.699 35 L 227.602 35.25 L 226.5 35.5508 L 225.449 35.8516 L 224.352 36.25 L 223.301 36.6016 L 222.25 36.9492 L 221.199 37.3984 L 220.199 37.8008 L 218.199 38.6992 L 217.25 39.1992 L 216.25 39.75 L 215.301 40.25 L 214.398 40.8516 L 213.5 41.3984 L 212.602 42 L 211.699 42.6016 L 210.852 43.25 L 210 43.8984 L 209.148 44.5508 L 208.352 45.1992 L 207.551 45.8984 L 206.801 46.6484 L 206 47.3984 L 205.25 48.1016 L 204.551 48.8984 L 203.852 49.6992 L 203.199 50.4492 L 202.551 51.3008 L 201.898 52.1016 L 201.301 52.9492 L 200.699 53.8008 L 200.148 54.6992 L 199.602 55.5508 L 199.102 56.4492 L 198.602 57.3516 L 198.148 58.3008 L 197.699 59.1992 L 197.301 60.1484 L 196.898 61.1484 L 196.5 62.1016 L 196.199 63.0508 L 195.898 64.0508 L 195.602 65.0508 L 195.352 66.0508 L 195.102 67.1016 L 194.898 68.1016 L 194.75 69.1484 L 194.602 70.1992 L 194.5 71.25 L 194.398 72.3516" />
  </g>
  <g id="surface4">
    <text font-family="Droid Serif" font-size="50px" style="fill:rgb(41,60,136)" transform="matrix(1 0 0 1 110.1 186.2)" xml:space="preserve">Anita Lowe</text>
    <text font-family="Futura Md BT" font-size="35px" style="fill:rgb(131,133,138)" transform="matrix(1 0 0 1 120.9 233.8)" xml:space="preserve">Virtual Assistant</text>
  </g>
</svg>